{
  "accessors": [
    {
      "bufferView": 2,
      "componentType": 5126,
      "count": 5268,
      "max": [
        0.6021999716758728,
        0.4085899889469147,
        -0.135670006275177
      ],
      "min": [
        -0.6021999716758728,
        -1.9343199729919434,
        -1.1634600162506104
      ],
      "type": "VEC3"
    },
    {
      "bufferView": 2,
      "byteOffset": 63216,
      "componentType": 5126,
      "count": 5268,
      "max": [
        0.9998416900634766,
        1.0,
        0.9998617768287659
      ],
      "min": [
        -0.9998416900634766,
        -0.9957460165023804,
        -0.9999924302101135
      ],
      "type": "VEC3"
    },
    {
      "bufferView": 1,
      "componentType": 5126,
      "count": 5268,
      "max": [
        0.7806699872016907,
        0.9871000051498413
      ],
      "min": [
        0.012539999559521675,
        0.0008299999753944576
      ],
      "type": "VEC2"
    },
    {
      "bufferView": 0,
      "componentType": 5125,
      "count": 29952,
      "type": "SCALAR"
    },
    {
      "bufferView": 2,
      "byteOffset": 126432,
      "componentType": 5126,
      "count": 24364,
      "max": [
        2.225399971008301,
        2.6272199153900146,
        1.6148600578308105
      ],
      "min": [
        -2.2255001068115234,
        -1.5217000246047974,
        -1.6462899446487427
      ],
      "type": "VEC3"
    },
    {
      "bufferView": 2,
      "byteOffset": 418800,
      "componentType": 5126,
      "count": 24364,
      "max": [
        0.9976468682289124,
        0.9998001456260681,
        0.9999958872795105
      ],
      "min": [
        -0.997687041759491,
        -0.9999114274978638,
        -0.9999420046806335
      ],
      "type": "VEC3"
    },
    {
      "bufferView": 1,
      "byteOffset": 42144,
      "componentType": 5126,
      "count": 24364,
      "max": [
        1.0102100372314453,
        0.9866300225257874
      ],
      "min": [
        0.0,
        0.015150000341236591
      ],
      "type": "VEC2"
    },
    {
      "bufferView": 0,
      "byteOffset": 119808,
      "componentType": 5125,
      "count": 145152,
      "type": "SCALAR"
    },
    {
      "bufferView": 2,
      "byteOffset": 711168,
      "componentType": 5126,
      "count": 425,
      "max": [
        0.6714199781417847,
        -0.5645700097084045,
        0.3289099931716919
      ],
      "min": [
        -0.6709499955177307,
        -1.3666499853134155,
        -0.9080700278282166
      ],
      "type": "VEC3"
    },
    {
      "bufferView": 2,
      "byteOffset": 716268,
      "componentType": 5126,
      "count": 425,
      "max": [
        0.9344761371612549,
        0.43474268913269043,
        0.8948343396186829
      ],
      "min": [
        -0.9451714754104614,
        -0.9784072637557983,
        -0.9999104738235474
      ],
      "type": "VEC3"
    },
    {
      "bufferView": 1,
      "byteOffset": 237056,
      "componentType": 5126,
      "count": 425,
      "max": [
        0.6190000176429749,
        0.623420000076294
      ],
      "min": [
        0.39566999673843384,
        0.29416999220848083
      ],
      "type": "VEC2"
    },
    {
      "bufferView": 0,
      "byteOffset": 700416,
      "componentType": 5125,
      "count": 2304,
      "type": "SCALAR"
    },
    {
      "bufferView": 2,
      "byteOffset": 721368,
      "componentType": 5126,
      "count": 6656,
      "max": [
        0.705810010433197,
        -1.164270043373108,
        0.32047000527381897
      ],
      "min": [
        -0.705810010433197,
        -1.4177500009536743,
        -0.13721999526023865
      ],
      "type": "VEC3"
    },
    {
      "bufferView": 2,
      "byteOffset": 801240,
      "componentType": 5126,
      "count": 6656,
      "max": [
        0.9505566358566284,
        0.9806598424911499,
        -0.1629725694656372
      ],
      "min": [
        -0.9505566358566284,
        -0.9864143133163452,
        -0.8511064052581787
      ],
      "type": "VEC3"
    },
    {
      "bufferView": 0,
      "byteOffset": 709632,
      "componentType": 5125,
      "count": 36810,
      "type": "SCALAR"
    }
  ],
  "asset": {
    "extras": {
      "author": "Heiner Morales (https://sketchfab.com/hfmm99)",
      "license": "CC-BY-NC-4.0 (http://creativecommons.org/licenses/by-nc/4.0/)",
      "source": "https://sketchfab.com/3d-models/boo-4f415997a00a4eacbf2f9da45f5f2b69",
      "title": "Boo"
    },
    "generator": "Sketchfab-12.66.0",
    "version": "2.0"
  },
  "bufferViews": [
    {
      "buffer": 0,
      "byteLength": 856872,
      "name": "floatBufferViews",
      "target": 34963
    },
    {
      "buffer": 0,
      "byteLength": 240456,
      "byteOffset": 856872,
      "byteStride": 8,
      "name": "floatBufferViews",
      "target": 34962
    },
    {
      "buffer": 0,
      "byteLength": 881112,
      "byteOffset": 1097328,
      "byteStride": 12,
      "name": "floatBufferViews",
      "target": 34962
    }
  ],
  "buffers": [
    {
      "byteLength": 1978440,
      "uri": "scene.bin"
    }
  ],
  "extensionsRequired": [
    "KHR_materials_pbrSpecularGlossiness"
  ],
  "extensionsUsed": [
    "KHR_materials_pbrSpecularGlossiness"
  ],
  "images": [
    {
      "uri": "textures/Piel_diffuse.png"
    }
  ],
  "materials": [
    {
      "doubleSided": true,
      "extensions": {
        "KHR_materials_pbrSpecularGlossiness": {
          "diffuseFactor": [
            1.0,
            1.0,
            1.0,
            1.0
          ],
          "glossinessFactor": 0.8,
          "specularFactor": [
            0.05,
            0.05,
            0.05
          ]
        }
      },
      "name": "Root"
    },
    {
      "doubleSided": true,
      "extensions": {
        "KHR_materials_pbrSpecularGlossiness": {
          "diffuseFactor": [
            0.71,
            0.71,
            0.71,
            1.0
          ],
          "diffuseTexture": {
            "index": 0
          },
          "glossinessFactor": 1.0,
          "specularFactor": [
            0.0,
            0.0,
            0.0
          ]
        }
      },
      "name": "Piel"
    },
    {
      "doubleSided": true,
      "extensions": {
        "KHR_materials_pbrSpecularGlossiness": {
          "diffuseFactor": [
            0.2461942136,
            0.0,
            0.0004255552,
            1.0
          ],
          "glossinessFactor": 0.799999997,
          "specularFactor": [
            0.08000000119,
            0.08000000119,
            0.08000000119
          ]
        }
      },
      "name": "Boca"
    },
    {
      "doubleSided": true,
      "extensions": {
        "KHR_materials_pbrSpecularGlossiness": {
          "diffuseFactor": [
            0.5256640672640001,
            0.022145892384,
            0.10145199657600001,
            1.0
          ],
          "glossinessFactor": 0.16000000000000003,
          "specularFactor": [
            0.0,
            0.0,
            0.0
          ]
        }
      },
      "name": "Lengua"
    }
  ],
  "meshes": [
    {
      "name": "Lengua",
      "primitives": [
        {
          "attributes": {
            "NORMAL": 1,
            "POSITION": 0,
            "TEXCOORD_0": 2
          },
          "indices": 3,
          "material": 3,
          "mode": 4
        }
      ]
    },
    {
      "name": "Cuerpo",
      "primitives": [
        {
          "attributes": {
            "NORMAL": 5,
            "POSITION": 4,
            "TEXCOORD_0": 6
          },
          "indices": 7,
          "material": 1,
          "mode": 4
        }
      ]
    },
    {
      "name": "Cuerpo",
      "primitives": [
        {
          "attributes": {
            "NORMAL": 9,
            "POSITION": 8,
            "TEXCOORD_0": 10
          },
          "indices": 11,
          "material": 2,
          "mode": 4
        }
      ]
    },
    {
      "name": "Dientes",
      "primitives": [
        {
          "attributes": {
            "NORMAL": 13,
            "POSITION": 12
          },
          "indices": 14,
          "material": 0,
          "mode": 4
        }
      ]
    }
  ],
  "nodes": [
    {
      "children": [
        1
      ],
      "matrix": [
        1.0,
        0.0,
        0.0,
        0.0,
        0.0,
        2.220446049250313e-16,
        -1.0,
        0.0,
        0.0,
        1.0,
        2.220446049250313e-16,
        0.0,
        0.0,
        0.0,
        0.0,
        1.0
      ],
      "name": "Sketchfab_model"
    },
    {
      "children": [
        2,
        4,
        6,
        9,
        11,
        13,
        15,
        17,
        19,
        21,
        23,
        25
      ],
      "name": "Root"
    },
    {
      "children": [
        3
      ],
      "name": "Lengua"
    },
    {
      "mesh": 0,
      "name": "Lengua"
    },
    {
      "children": [
        5
      ],
      "matrix": [
        -0.08585000000000001,
        0.28192000000000006,
        -0.016290000000000002,
        0.0,
        -0.47943,
        -0.12428000000000002,
        0.3758600000000001,
        0.0,
        0.20368,
        0.07853000000000002,
        0.28576,
        0.0,
        3.6329599999999997,
        0.9569200000000001,
        5.91409,
        1.0
      ],
      "name": "Lamp"
    },
    {
      "name": "Lamp"
    },
    {
      "children": [
        7,
        8
      ],
      "name": "Cuerpo"
    },
    {
      "mesh": 1,
      "name": "Cuerpo"
    },
    {
      "mesh": 2,
      "name": "Cuerpo"
    },
    {
      "children": [
        10
      ],
      "name": "Dientes"
    },
    {
      "mesh": 3,
      "name": "Dientes"
    },
    {
      "children": [
        12
      ],
      "matrix": [
        -1.0,
        -0.0,
        0.002480000000000001,
        0.0,
        -0.002480000000000001,
        0.0,
        -1.0,
        0.0,
        0.0,
        -1.0,
        -0.0,
        0.0,
        0.003120000000000001,
        -2.70686,
        -0.11668000000000002,
        1.0
      ],
      "name": "Lamp.001"
    },
    {
      "name": "Lamp.001"
    },
    {
      "children": [
        14
      ],
      "matrix": [
        -0.08585000000000001,
        0.28192000000000006,
        -0.016290000000000002,
        0.0,
        -0.47943,
        -0.12428000000000002,
        0.3758600000000001,
        0.0,
        0.20368,
        0.07853000000000002,
        0.28576,
        0.0,
        3.6329599999999997,
        -3.7705100000000003,
        -4.023079999999999,
        1.0
      ],
      "name": "Lamp.002"
    },
    {
      "name": "Lamp.002"
    },
    {
      "children": [
        16
      ],
      "matrix": [
        -0.08585000000000001,
        0.28192000000000006,
        -0.016290000000000002,
        0.0,
        -0.47943,
        -0.12428000000000002,
        0.3758600000000001,
        0.0,
        0.20368,
        0.07853000000000002,
        0.28576,
        0.0,
        -3.5835300000000005,
        -3.7705100000000003,
        -4.023079999999999,
        1.0
      ],
      "name": "Lamp.003"
    },
    {
      "name": "Lamp.003"
    },
    {
      "children": [
        18
      ],
      "matrix": [
        -0.08585000000000001,
        0.28192000000000006,
        -0.016290000000000002,
        0.0,
        -0.47943,
        -0.12428000000000002,
        0.3758600000000001,
        0.0,
        0.20368,
        0.07853000000000002,
        0.28576,
        0.0,
        -3.5835300000000005,
        0.9569200000000001,
        5.91409,
        1.0
      ],
      "name": "Lamp.005"
    },
    {
      "name": "Lamp.005"
    },
    {
      "children": [
        20
      ],
      "matrix": [
        -0.08585000000000001,
        0.28192000000000006,
        -0.016290000000000002,
        0.0,
        -0.47943,
        -0.12428000000000002,
        0.3758600000000001,
        0.0,
        0.20368,
        0.07853000000000002,
        0.28576,
        0.0,
        -3.5835300000000005,
        -3.7705100000000003,
        5.91409,
        1.0
      ],
      "name": "Lamp.006"
    },
    {
      "name": "Lamp.006"
    },
    {
      "children": [
        22
      ],
      "matrix": [
        -0.08585000000000001,
        0.28192000000000006,
        -0.016290000000000002,
        0.0,
        -0.47943,
        -0.12428000000000002,
        0.3758600000000001,
        0.0,
        0.20368,
        0.07853000000000002,
        0.28576,
        0.0,
        3.6329599999999997,
        -3.7705100000000003,
        5.91409,
        1.0
      ],
      "name": "Lamp.007"
    },
    {
      "name": "Lamp.007"
    },
    {
      "children": [
        24
      ],
      "matrix": [
        -0.08585000000000001,
        0.28192000000000006,
        -0.016290000000000002,
        0.0,
        -0.47943,
        -0.12428000000000002,
        0.3758600000000001,
        0.0,
        0.20368,
        0.07853000000000002,
        0.28576,
        0.0,
        -3.5835300000000005,
        0.9569200000000001,
        -4.023079999999999,
        1.0
      ],
      "name": "Lamp.008"
    },
    {
      "name": "Lamp.008"
    },
    {
      "children": [
        26
      ],
      "matrix": [
        -0.08585000000000001,
        0.28192000000000006,
        -0.016290000000000002,
        0.0,
        -0.47943,
        -0.12428000000000002,
        0.3758600000000001,
        0.0,
        0.20368,
        0.07853000000000002,
        0.28576,
        0.0,
        3.6329599999999997,
        0.9569200000000001,
        -4.023079999999999,
        1.0
      ],
      "name": "Lamp.009"
    },
    {
      "name": "Lamp.009"
    }
  ],
  "samplers": [
    {
      "magFilter": 9729,
      "minFilter": 9987,
      "wrapS": 10497,
      "wrapT": 10497
    }
  ],
  "scene": 0,
  "scenes": [
    {
      "name": "Sketchfab_Scene",
      "nodes": [
        0
      ]
    }
  ],
  "textures": [
    {
      "sampler": 0,
      "source": 0
    }
  ]
}
