{
  "accessors": [
    {
      "bufferView": 2,
      "componentType": 5126,
      "count": 465,
      "max": [
        0.620811402797699,
        0.18708567321300507,
        -0.7150524258613586
      ],
      "min": [
        -0.620811402797699,
        -1.2941341400146484,
        -1.2331253290176392
      ],
      "type": "VEC3"
    },
    {
      "bufferView": 2,
      "byteOffset": 5580,
      "componentType": 5126,
      "count": 465,
      "max": [
        0.9978027939796448,
        0.42088577151298523,
        0.9997265338897705
      ],
      "min": [
        -0.9978027939796448,
        -0.9931618571281433,
        -0.9999421834945679
      ],
      "type": "VEC3"
    },
    {
      "bufferView": 1,
      "componentType": 5126,
      "count": 465,
      "max": [
        0.14613020420074463,
        0.9083849787712097
      ],
      "min": [
        0.00802373792976141,
        0.3608357012271881
      ],
      "type": "VEC2"
    },
    {
      "bufferView": 0,
      "componentType": 5125,
      "count": 2688,
      "type": "SCALAR"
    },
    {
      "bufferView": 2,
      "byteOffset": 11160,
      "componentType": 5126,
      "count": 2244,
      "max": [
        2.657432794570923,
        2.8323090076446533,
        1.9505800008773804
      ],
      "min": [
        -2.6574323177337646,
        -2.0272979736328125,
        -1.926876187324524
      ],
      "type": "VEC3"
    },
    {
      "bufferView": 2,
      "byteOffset": 38088,
      "componentType": 5126,
      "count": 2244,
      "max": [
        1.0,
        0.9996851086616516,
        0.9999690055847168
      ],
      "min": [
        -0.9999998807907104,
        -0.9996229410171509,
        -0.999566912651062
      ],
      "type": "VEC3"
    },
    {
      "bufferView": 1,
      "byteOffset": 3720,
      "componentType": 5126,
      "count": 2244,
      "max": [
        0.9921022057533264,
        0.9924600720405579
      ],
      "min": [
        0.00653880788013339,
        0.010165509767830372
      ],
      "type": "VEC2"
    },
    {
      "bufferView": 0,
      "byteOffset": 10752,
      "componentType": 5125,
      "count": 12924,
      "type": "SCALAR"
    },
    {
      "bufferView": 2,
      "byteOffset": 65016,
      "componentType": 5126,
      "count": 1004,
      "max": [
        0.2445683777332306,
        -1.9245538711547852,
        0.527006208896637
      ],
      "min": [
        -0.24456848204135895,
        -2.0002448558807373,
        0.13879463076591492
      ],
      "type": "VEC3"
    },
    {
      "bufferView": 2,
      "byteOffset": 77064,
      "componentType": 5126,
      "count": 1004,
      "max": [
        0.9958064556121826,
        0.983960747718811,
        0.9881026744842529
      ],
      "min": [
        -0.9958064556121826,
        -0.9839597344398499,
        -0.9881048202514648
      ],
      "type": "VEC3"
    },
    {
      "bufferView": 1,
      "byteOffset": 21672,
      "componentType": 5126,
      "count": 1004,
      "max": [
        0.33235350251197815,
        0.9974839091300964
      ],
      "min": [
        0.32743141055107117,
        0.9637001752853394
      ],
      "type": "VEC2"
    },
    {
      "bufferView": 0,
      "byteOffset": 62448,
      "componentType": 5125,
      "count": 5472,
      "type": "SCALAR"
    },
    {
      "bufferView": 2,
      "byteOffset": 89112,
      "componentType": 5126,
      "count": 868,
      "max": [
        0.5433918833732605,
        -1.0983878374099731,
        0.19780610501766205
      ],
      "min": [
        -0.543391764163971,
        -1.8956457376480103,
        -1.242965579032898
      ],
      "type": "VEC3"
    },
    {
      "bufferView": 2,
      "byteOffset": 99528,
      "componentType": 5126,
      "count": 868,
      "max": [
        0.9667438268661499,
        0.9510473608970642,
        0.9984123706817627
      ],
      "min": [
        -0.9667438268661499,
        -0.9999997615814209,
        -1.0
      ],
      "type": "VEC3"
    },
    {
      "bufferView": 1,
      "byteOffset": 29704,
      "componentType": 5126,
      "count": 868,
      "max": [
        0.31977578997612,
        0.9969834089279175
      ],
      "min": [
        0.16366800665855408,
        0.7603967189788818
      ],
      "type": "VEC2"
    },
    {
      "bufferView": 0,
      "byteOffset": 84336,
      "componentType": 5125,
      "count": 4992,
      "type": "SCALAR"
    },
    {
      "bufferView": 2,
      "byteOffset": 109944,
      "componentType": 5126,
      "count": 868,
      "max": [
        0.5433918833732605,
        -1.0983878374099731,
        0.19780610501766205
      ],
      "min": [
        -0.543391764163971,
        -1.8956457376480103,
        -1.242965579032898
      ],
      "type": "VEC3"
    },
    {
      "bufferView": 2,
      "byteOffset": 120360,
      "componentType": 5126,
      "count": 868,
      "max": [
        0.9667438268661499,
        0.9510473608970642,
        0.9984123706817627
      ],
      "min": [
        -0.9667438268661499,
        -0.9999997615814209,
        -1.0
      ],
      "type": "VEC3"
    },
    {
      "bufferView": 1,
      "byteOffset": 36648,
      "componentType": 5126,
      "count": 868,
      "max": [
        0.31977578997612,
        0.9969834089279175
      ],
      "min": [
        0.16366800665855408,
        0.7603967189788818
      ],
      "type": "VEC2"
    },
    {
      "bufferView": 0,
      "byteOffset": 104304,
      "componentType": 5125,
      "count": 4992,
      "type": "SCALAR"
    },
    {
      "bufferView": 2,
      "byteOffset": 130776,
      "componentType": 5126,
      "count": 1004,
      "max": [
        0.2445683777332306,
        -1.9245538711547852,
        0.527006208896637
      ],
      "min": [
        -0.24456848204135895,
        -2.0002448558807373,
        0.13879463076591492
      ],
      "type": "VEC3"
    },
    {
      "bufferView": 2,
      "byteOffset": 142824,
      "componentType": 5126,
      "count": 1004,
      "max": [
        0.9958064556121826,
        0.983960747718811,
        0.9881026744842529
      ],
      "min": [
        -0.9958064556121826,
        -0.9839597344398499,
        -0.9881048202514648
      ],
      "type": "VEC3"
    },
    {
      "bufferView": 1,
      "byteOffset": 43592,
      "componentType": 5126,
      "count": 1004,
      "max": [
        0.33235350251197815,
        0.9974839091300964
      ],
      "min": [
        0.32743141055107117,
        0.9637001752853394
      ],
      "type": "VEC2"
    },
    {
      "bufferView": 0,
      "byteOffset": 124272,
      "componentType": 5125,
      "count": 5472,
      "type": "SCALAR"
    },
    {
      "bufferView": 2,
      "byteOffset": 154872,
      "componentType": 5126,
      "count": 2244,
      "max": [
        2.657432794570923,
        2.8323090076446533,
        1.9505800008773804
      ],
      "min": [
        -2.6574323177337646,
        -2.0272979736328125,
        -1.926876187324524
      ],
      "type": "VEC3"
    },
    {
      "bufferView": 2,
      "byteOffset": 181800,
      "componentType": 5126,
      "count": 2244,
      "max": [
        1.0,
        0.9996851086616516,
        0.9999690055847168
      ],
      "min": [
        -0.9999998807907104,
        -0.9996229410171509,
        -0.999566912651062
      ],
      "type": "VEC3"
    },
    {
      "bufferView": 1,
      "byteOffset": 51624,
      "componentType": 5126,
      "count": 2244,
      "max": [
        0.9921022057533264,
        0.9924600720405579
      ],
      "min": [
        0.00653880788013339,
        0.010165509767830372
      ],
      "type": "VEC2"
    },
    {
      "bufferView": 0,
      "byteOffset": 146160,
      "componentType": 5125,
      "count": 12924,
      "type": "SCALAR"
    },
    {
      "bufferView": 2,
      "byteOffset": 208728,
      "componentType": 5126,
      "count": 465,
      "max": [
        0.620811402797699,
        0.18708567321300507,
        -0.7150524258613586
      ],
      "min": [
        -0.620811402797699,
        -1.2941341400146484,
        -1.2331253290176392
      ],
      "type": "VEC3"
    },
    {
      "bufferView": 2,
      "byteOffset": 214308,
      "componentType": 5126,
      "count": 465,
      "max": [
        0.9978027939796448,
        0.42088577151298523,
        0.9997265338897705
      ],
      "min": [
        -0.9978027939796448,
        -0.9931618571281433,
        -0.9999421834945679
      ],
      "type": "VEC3"
    },
    {
      "bufferView": 1,
      "byteOffset": 69576,
      "componentType": 5126,
      "count": 465,
      "max": [
        0.14613020420074463,
        0.9083849787712097
      ],
      "min": [
        0.00802373792976141,
        0.3608357012271881
      ],
      "type": "VEC2"
    },
    {
      "bufferView": 0,
      "byteOffset": 197856,
      "componentType": 5125,
      "count": 2688,
      "type": "SCALAR"
    }
  ],
  "asset": {
    "extras": {
      "author": "StinkySkunk12 (https://sketchfab.com/Bearfnf)",
      "license": "SKETCHFAB Standard (https://sketchfab.com/licenses)",
      "source": "https://sketchfab.com/3d-models/big-boo-super-mario-world-custom-46f17f7605c04add9aa310b575335a2b",
      "title": "Big Boo Super Mario World (Custom)"
    },
    "generator": "Sketchfab-17.8.0",
    "version": "2.0"
  },
  "bufferViews": [
    {
      "buffer": 0,
      "byteLength": 208608,
      "name": "floatBufferViews",
      "target": 34963
    },
    {
      "buffer": 0,
      "byteLength": 73296,
      "byteOffset": 208608,
      "byteStride": 8,
      "name": "floatBufferViews",
      "target": 34962
    },
    {
      "buffer": 0,
      "byteLength": 219888,
      "byteOffset": 281904,
      "byteStride": 12,
      "name": "floatBufferViews",
      "target": 34962
    }
  ],
  "buffers": [
    {
      "byteLength": 501792,
      "uri": "scene.bin"
    }
  ],
  "extensionsUsed": [
    "KHR_materials_specular"
  ],
  "images": [
    {
      "uri": "textures/Big_Bioo_Body_baseColor.png"
    }
  ],
  "materials": [
    {
      "doubleSided": true,
      "name": "Big_Bioo_Body",
      "pbrMetallicRoughness": {
        "baseColorTexture": {
          "index": 0
        },
        "metallicFactor": 0.0,
        "roughnessFactor": 0.6
      }
    },
    {
      "doubleSided": true,
      "extensions": {
        "KHR_materials_specular": {
          "specularColorFactor": [
            1.0,
            1.0,
            1.0
          ],
          "specularFactor": 0.40685838280649994
        }
      },
      "name": "Big_Bioo_Body_0",
      "pbrMetallicRoughness": {
        "baseColorTexture": {
          "index": 0
        },
        "metallicFactor": 0.0,
        "roughnessFactor": 0.8579073764796235
      }
    },
    {
      "doubleSided": true,
      "name": "Big_Bioo_Body_1",
      "pbrMetallicRoughness": {
        "baseColorTexture": {
          "index": 0
        },
        "metallicFactor": 0.0,
        "roughnessFactor": 0.6
      }
    },
    {
      "doubleSided": true,
      "name": "Big_Bioo_Body_2",
      "pbrMetallicRoughness": {
        "baseColorTexture": {
          "index": 0
        },
        "metallicFactor": 0.0,
        "roughnessFactor": 0.6
      }
    }
  ],
  "meshes": [
    {
      "name": "Object_0",
      "primitives": [
        {
          "attributes": {
            "NORMAL": 1,
            "POSITION": 0,
            "TEXCOORD_0": 2
          },
          "indices": 3,
          "material": 0,
          "mode": 4
        }
      ]
    },
    {
      "name": "Object_1",
      "primitives": [
        {
          "attributes": {
            "NORMAL": 5,
            "POSITION": 4,
            "TEXCOORD_0": 6
          },
          "indices": 7,
          "material": 1,
          "mode": 4
        }
      ]
    },
    {
      "name": "Object_2",
      "primitives": [
        {
          "attributes": {
            "NORMAL": 9,
            "POSITION": 8,
            "TEXCOORD_0": 10
          },
          "indices": 11,
          "material": 2,
          "mode": 4
        }
      ]
    },
    {
      "name": "Object_3",
      "primitives": [
        {
          "attributes": {
            "NORMAL": 13,
            "POSITION": 12,
            "TEXCOORD_0": 14
          },
          "indices": 15,
          "material": 3,
          "mode": 4
        }
      ]
    },
    {
      "name": "Object_4",
      "primitives": [
        {
          "attributes": {
            "NORMAL": 17,
            "POSITION": 16,
            "TEXCOORD_0": 18
          },
          "indices": 19,
          "material": 3,
          "mode": 4
        }
      ]
    },
    {
      "name": "Object_5",
      "primitives": [
        {
          "attributes": {
            "NORMAL": 21,
            "POSITION": 20,
            "TEXCOORD_0": 22
          },
          "indices": 23,
          "material": 2,
          "mode": 4
        }
      ]
    },
    {
      "name": "Object_6",
      "primitives": [
        {
          "attributes": {
            "NORMAL": 25,
            "POSITION": 24,
            "TEXCOORD_0": 26
          },
          "indices": 27,
          "material": 1,
          "mode": 4
        }
      ]
    },
    {
      "name": "Object_7",
      "primitives": [
        {
          "attributes": {
            "NORMAL": 29,
            "POSITION": 28,
            "TEXCOORD_0": 30
          },
          "indices": 31,
          "material": 0,
          "mode": 4
        }
      ]
    }
  ],
  "nodes": [
    {
      "children": [
        1
      ],
      "matrix": [
        1.0,
        0.0,
        0.0,
        0.0,
        0.0,
        2.220446049250313e-16,
        -1.0,
        0.0,
        0.0,
        1.0,
        2.220446049250313e-16,
        0.0,
        0.0,
        0.0,
        0.0,
        1.0
      ],
      "name": "Sketchfab_model"
    },
    {
      "children": [
        2
      ],
      "name": "Collada visual scene group"
    },
    {
      "children": [
        3
      ],
      "matrix": [
        1.0,
        0.0,
        0.0,
        0.0,
        0.0,
        1.0,
        -1.62921e-07,
        0.0,
        0.0,
        1.62921e-07,
        1.0,
        0.0,
        0.0,
        0.0,
        0.0,
        1.0
      ],
      "name": "Big_Boo_Armature"
    },
    {
      "children": [
        4,
        5,
        6,
        7,
        8,
        9,
        10,
        11
      ],
      "name": "Object_3"
    },
    {
      "mesh": 0,
      "name": "Object_4"
    },
    {
      "mesh": 1,
      "name": "Object_5"
    },
    {
      "mesh": 2,
      "name": "Object_6"
    },
    {
      "mesh": 3,
      "name": "Object_7"
    },
    {
      "mesh": 4,
      "name": "Object_8"
    },
    {
      "mesh": 5,
      "name": "Object_9"
    },
    {
      "mesh": 6,
      "name": "Object_10"
    },
    {
      "mesh": 7,
      "name": "Object_11"
    }
  ],
  "samplers": [
    {
      "magFilter": 9729,
      "minFilter": 9987,
      "wrapS": 10497,
      "wrapT": 10497
    }
  ],
  "scene": 0,
  "scenes": [
    {
      "name": "Sketchfab_Scene",
      "nodes": [
        0
      ]
    }
  ],
  "textures": [
    {
      "sampler": 0,
      "source": 0
    }
  ]
}
